<svg xmlns="http://www.w3.org/2000/svg" xmlns:xlink="http://www.w3.org/1999/xlink" version="1.1" width="256" height="256" viewBox="0 0 256 256" xml:space="preserve">

<defs>
</defs>
<g style="stroke: none; stroke-width: 0; stroke-dasharray: none; stroke-linecap: butt; stroke-linejoin: miter; stroke-miterlimit: 10; fill: none; fill-rule: nonzero; opacity: 1;" transform="translate(13.6466926070039 13.646692607003871) scale(2.53 2.53)" >
	<path d="M 80.386 77.959 L 69.929 55.535 c -6.21 6.668 -15.038 10.862 -24.833 10.922 l 10.708 22.965 c 0.135 0.289 0.399 0.497 0.712 0.559 c 0.066 0.014 0.131 0.02 0.196 0.02 c 0.249 0 0.49 -0.092 0.677 -0.263 l 9.477 -8.683 l 12.742 -1.678 c 0.316 -0.041 0.594 -0.231 0.748 -0.511 C 80.51 78.585 80.521 78.248 80.386 77.959 z" style="stroke: none; stroke-width: 1; stroke-dasharray: none; stroke-linecap: butt; stroke-linejoin: miter; stroke-miterlimit: 10; fill: rgb(255,255,255); fill-rule: nonzero; opacity: 1;" transform=" matrix(1 0 0 1 0 0) " stroke-linecap="round" />
	<path d="M 44.886 66.462 c -9.8 0 -18.644 -4.145 -24.89 -10.767 L 9.614 77.959 c -0.135 0.29 -0.124 0.626 0.029 0.906 c 0.154 0.28 0.432 0.47 0.748 0.511 l 12.742 1.678 l 9.476 8.683 C 32.797 89.908 33.039 90 33.287 90 c 0.065 0 0.131 -0.006 0.196 -0.02 c 0.313 -0.062 0.577 -0.27 0.712 -0.559 l 10.707 -22.96 C 44.897 66.462 44.892 66.462 44.886 66.462 z" style="stroke: none; stroke-width: 1; stroke-dasharray: none; stroke-linecap: butt; stroke-linejoin: miter; stroke-miterlimit: 10; fill: rgb(255,255,255); fill-rule: nonzero; opacity: 1;" transform=" matrix(1 0 0 1 0 0) " stroke-linecap="round" />
	<path d="M 33.797 29.625 v -1.026 c 0 -0.457 -0.372 -0.829 -0.829 -0.829 h -2.336 v 3.364 h 1.656 C 33.121 31.134 33.797 30.457 33.797 29.625 z" style="stroke: none; stroke-width: 1; stroke-dasharray: none; stroke-linecap: butt; stroke-linejoin: miter; stroke-miterlimit: 10; fill: rgb(255,255,255); fill-rule: nonzero; opacity: 1;" transform=" matrix(1 0 0 1 0 0) " stroke-linecap="round" />
	<path d="M 33.797 35.669 v -1.026 c 0 -0.832 -0.677 -1.509 -1.509 -1.509 h -1.656 v 3.364 h 2.336 C 33.426 36.498 33.797 36.126 33.797 35.669 z" style="stroke: none; stroke-width: 1; stroke-dasharray: none; stroke-linecap: butt; stroke-linejoin: miter; stroke-miterlimit: 10; fill: rgb(255,255,255); fill-rule: nonzero; opacity: 1;" transform=" matrix(1 0 0 1 0 0) " stroke-linecap="round" />
	<path d="M 44.886 0 c -12.75 0 -23.768 7.405 -28.995 18.148 c -2.032 4.224 -3.172 8.955 -3.172 13.947 c 0 8.262 3.123 15.805 8.247 21.521 l -0.064 0.137 c 5.9 6.571 14.458 10.706 23.984 10.706 c 17.8 0 32.229 -14.429 32.229 -32.229 S 62.686 0 44.886 0 z M 37.418 26.77 c 0 -0.552 0.448 -1 1 -1 c 0.032 0 0.059 0.015 0.09 0.018 c 0.031 -0.003 0.058 -0.018 0.09 -0.018 h 4.586 c 0.552 0 1 0.448 1 1 s -0.448 1 -1 1 h -3.766 v 3.364 h 1.762 c 0.552 0 1 0.448 1 1 s -0.448 1 -1 1 h -1.762 v 3.364 h 3.586 c 0.552 0 1 0.448 1 1 s -0.448 1 -1 1 h -4.586 c -0.552 0 -1 -0.448 -1 -1 V 26.77 z M 28.632 32.134 V 26.77 c 0 -0.552 0.448 -1 1 -1 h 3.336 c 1.56 0 2.829 1.269 2.829 2.829 v 1.026 c 0 0.984 -0.41 1.871 -1.064 2.509 c 0.654 0.638 1.064 1.525 1.064 2.509 v 1.026 c 0 1.56 -1.269 2.829 -2.829 2.829 h -3.336 c -0.552 0 -1 -0.448 -1 -1 V 32.134 z M 45 55.015 c -12.638 0 -22.921 -10.282 -22.921 -22.92 c 0 -0.553 0.449 -1.002 1.002 -1.002 s 1.002 0.449 1.002 1.002 c 0 11.533 9.383 20.916 20.917 20.916 c 0.553 0 1.002 0.448 1.002 1.002 S 45.553 55.015 45 55.015 z M 47.699 31.134 h 2.197 c 1.21 0 2.194 0.984 2.194 2.194 v 2.975 c 0 1.21 -0.984 2.194 -2.194 2.194 h -3.392 c -0.552 0 -1 -0.448 -1 -1 s 0.448 -1 1 -1 h 3.392 c 0.107 0 0.194 -0.087 0.194 -0.194 v -2.975 c 0 -0.107 -0.087 -0.194 -0.194 -0.194 h -2.197 c -1.21 0 -2.194 -0.984 -2.194 -2.195 v -2.975 c 0 -1.21 0.984 -2.194 2.194 -2.194 h 3.392 c 0.553 0 1 0.448 1 1 s -0.447 1 -1 1 h -3.392 c -0.107 0 -0.194 0.087 -0.194 0.194 v 2.975 C 47.505 31.046 47.592 31.134 47.699 31.134 z M 60.368 27.77 H 58.39 v 9.728 c 0 0.552 -0.447 1 -1 1 s -1 -0.448 -1 -1 V 27.77 h -1.978 c -0.553 0 -1 -0.448 -1 -1 s 0.447 -1 1 -1 h 5.956 c 0.553 0 1 0.448 1 1 S 60.921 27.77 60.368 27.77 z M 66.918 33.096 c -0.554 0 -1.002 -0.449 -1.002 -1.002 c 0 -11.534 -9.383 -20.917 -20.916 -20.917 c -0.553 0 -1.002 -0.449 -1.002 -1.002 S 44.447 9.173 45 9.173 c 12.638 0 22.92 10.282 22.92 22.921 C 67.92 32.648 67.472 33.096 66.918 33.096 z" style="stroke: none; stroke-width: 1; stroke-dasharray: none; stroke-linecap: butt; stroke-linejoin: miter; stroke-miterlimit: 10; fill: rgb(255,255,255); fill-rule: nonzero; opacity: 1;" transform=" matrix(1 0 0 1 0 0) " stroke-linecap="round" />
</g>
</svg>