<svg xmlns="http://www.w3.org/2000/svg" xmlns:xlink="http://www.w3.org/1999/xlink" version="1.1" width="256" height="256" viewBox="0 0 256 256" xml:space="preserve">

<defs>
</defs>
<g style="stroke: none; stroke-width: 0; stroke-dasharray: none; stroke-linecap: butt; stroke-linejoin: miter; stroke-miterlimit: 10; fill: none; fill-rule: nonzero; opacity: 1;" transform="translate(1.4065934065934016 1.4065934065934016) scale(2.81 2.81)" >
	<path d="M 48.337 47.136 c 3.017 -2.615 6.688 -5.291 6.688 -13.424 H 34.976 c 0 8.133 3.67 10.809 6.688 13.424 c 1.668 1.445 1.668 3.821 0 5.266 c -3.017 2.615 -6.688 5.291 -6.688 13.424 h 20.049 c 0 -8.133 -3.67 -10.809 -6.688 -13.424 C 46.669 50.957 46.669 48.581 48.337 47.136 z" style="stroke: none; stroke-width: 1; stroke-dasharray: none; stroke-linecap: butt; stroke-linejoin: miter; stroke-miterlimit: 10; fill: rgb(255,255,255); fill-rule: nonzero; opacity: 1;" transform=" matrix(1 0 0 1 0 0) " stroke-linecap="round" />
	<path d="M 56.849 70.291 H 33.151 c -0.331 0 -0.6 -0.269 -0.6 -0.6 v -4.266 c 0 -0.331 0.269 -0.6 0.6 -0.6 h 23.698 c 0.331 0 0.6 0.269 0.6 0.6 v 4.266 C 57.449 70.023 57.181 70.291 56.849 70.291 z" style="stroke: none; stroke-width: 1; stroke-dasharray: none; stroke-linecap: butt; stroke-linejoin: miter; stroke-miterlimit: 10; fill: rgb(255,255,255); fill-rule: nonzero; opacity: 1;" transform=" matrix(1 0 0 1 0 0) " stroke-linecap="round" />
	<path d="M 56.849 34.713 H 33.151 c -0.331 0 -0.6 -0.269 -0.6 -0.6 v -4.266 c 0 -0.331 0.269 -0.6 0.6 -0.6 h 23.698 c 0.331 0 0.6 0.269 0.6 0.6 v 4.266 C 57.449 34.444 57.181 34.713 56.849 34.713 z" style="stroke: none; stroke-width: 1; stroke-dasharray: none; stroke-linecap: butt; stroke-linejoin: miter; stroke-miterlimit: 10; fill: rgb(255,255,255); fill-rule: nonzero; opacity: 1;" transform=" matrix(1 0 0 1 0 0) " stroke-linecap="round" />
	<path d="M 73.5 18.452 l -3.075 2.584 c -0.485 0.408 -0.504 1.136 -0.056 1.585 c 6.89 6.892 10.989 16.575 10.456 27.208 c -0.901 17.969 -15.331 32.697 -33.28 33.935 C 26.583 85.209 9.129 68.633 9.129 47.98 c 0 -19.122 14.964 -34.745 33.821 -35.808 v 4.744 c 0 0.669 0.742 1.071 1.302 0.706 l 12.33 -8.036 c 0.51 -0.332 0.51 -1.079 0 -1.411 l -12.33 -8.036 c -0.56 -0.365 -1.302 0.037 -1.302 0.706 v 5.169 C 20.111 7.11 2.053 26.438 3.017 49.763 c 0.904 21.858 18.886 39.595 40.753 40.22 c 23.768 0.679 43.25 -18.387 43.25 -42.002 c 0 -11.479 -4.603 -21.884 -12.065 -29.468 C 74.564 18.115 73.927 18.093 73.5 18.452 z" style="stroke: none; stroke-width: 1; stroke-dasharray: none; stroke-linecap: butt; stroke-linejoin: miter; stroke-miterlimit: 10; fill: rgb(255,255,255); fill-rule: nonzero; opacity: 1;" transform=" matrix(1 0 0 1 0 0) " stroke-linecap="round" />
	<path d="M 45 44.645" style="stroke: none; stroke-width: 1; stroke-dasharray: none; stroke-linecap: butt; stroke-linejoin: miter; stroke-miterlimit: 10; fill: rgb(255,255,255); fill-rule: nonzero; opacity: 1;" transform=" matrix(1 0 0 1 0 0) " stroke-linecap="round" />
</g>
</svg>